<xml version="1.0" encoding="utf-8">
<!-- Generator: Adobe Illustrator 18.1.1, SVG Export Plug-In . SVG Version: 6.00 Build 0)  -->
<svg version="1.1" id="Layer_1" xmlns="http://www.w3.org/2000/svg" xmlns:xlink="http://www.w3.org/1999/xlink" x="0px" y="0px"
	 viewBox="0 0 101.2 101.1" enable-background="new 0 0 101.2 101.1" xml:space="preserve">
<g>
	<g>
		<path d="M69.4,48.4c-12.4,0-24.9,0-37.3,0c-2.8,0-2.8,4.4,0,4.4c12.4,0,24.9,0,37.3,0
			C72.2,52.7,72.2,48.4,69.4,48.4L69.4,48.4z"/>
	</g>
	<g>
		<path fill="#595A5C" d="M44.4,35.1c-4.6,4.6-9.3,9.3-13.9,13.9c-0.8,0.8-0.8,2.3,0,3.1c4.6,4.6,9.3,9.3,13.9,13.9
			c2,2,5.1-1.1,3.1-3.1c-4.6-4.6-9.3-9.3-13.9-13.9c0,1,0,2.1,0,3.1c4.6-4.6,9.3-9.3,13.9-13.9C49.5,36.2,46.4,33.1,44.4,35.1
			L44.4,35.1z"/>
	</g>
</g>
<g>
	<path fill="#595A5C" d="M4.4,50.7C5.1,25.5,25,4.4,50.7,4.4c25.4,0,46.2,21.1,46.4,46.4C97.2,76,75.9,97.1,50.7,97.1
		C25,97.1,5.1,76,4.4,50.7c-0.1-2.8-4.4-2.8-4.4,0c1.2,45.9,59.8,68.9,89.9,32.2C119,47.3,87.5-6.8,42.3,0.7
		C17.7,4.8,0.7,26.3,0,50.7C-0.1,53.5,4.3,53.5,4.4,50.7z"/>
</g>
</svg>
