<xml version="1.0" encoding="utf-8">
<!-- Generator: Adobe Illustrator 19.1.0, SVG Export Plug-In . SVG Version: 6.00 Build 0)  -->
<svg version="1.1" id="Layer_1" xmlns="http://www.w3.org/2000/svg" xmlns:xlink="http://www.w3.org/1999/xlink" x="0px" y="0px"
	 viewBox="-222 372 165.5 50" style="enable-background:new -222 372 165.5 50;" xml:space="preserve">
<style type="text/css">
	.st0{fill:#FB5639;}
</style>
<g>
	<g>
		<g id="XMLID_162_">
			<g id="XMLID_177_">
				<path id="XMLID_184_" class="st0" d="M-140.9,381.6h-2.8c-0.2,0-0.4,0.1-0.4,0.3l-4.1,9.8c-0.2,0.5-0.5,1.2-0.7,1.8
					c-0.2-0.6-0.4-1.3-0.7-1.8l-4.1-9.9c-0.1-0.2-0.2-0.3-0.4-0.3h-3.1c-0.2,0-0.3,0.1-0.4,0.2c-0.1,0.1-0.1,0.3,0,0.4l8,18.5
					c0.1,0.2,0.2,0.3,0.4,0.3h0.4c0.2,0,0.3-0.1,0.4-0.3l7.8-18.5c0.1-0.1,0-0.3,0-0.4C-140.6,381.7-140.8,381.6-140.9,381.6z"/>
				<path id="XMLID_181_" class="st0" d="M-128.3,381.7c-0.1-0.2-0.2-0.3-0.4-0.3h-0.3c-0.2,0-0.3,0.1-0.4,0.3l-7.9,18.5
					c-0.1,0.1,0,0.3,0,0.4c0.1,0.1,0.2,0.2,0.4,0.2h2.8c0.2,0,0.4-0.1,0.4-0.3l1.2-3.1h7.2l1.2,3.1c0.1,0.2,0.2,0.3,0.4,0.3h3
					c0.2,0,0.3-0.1,0.4-0.2s0.1-0.3,0-0.4L-128.3,381.7z M-126.7,394.2h-4.5l1.7-4.4c0.2-0.4,0.3-0.9,0.5-1.3
					c0.2,0.5,0.3,0.9,0.5,1.3L-126.7,394.2z"/>
				<path id="XMLID_180_" class="st0" d="M-101,397.5h-8v-15.4c0-0.3-0.2-0.5-0.5-0.5h-2.9c-0.3,0-0.5,0.2-0.5,0.5v18.4
					c0,0.3,0.2,0.5,0.5,0.5h11.4c0.3,0,0.5-0.2,0.5-0.5V398C-100.5,397.7-100.7,397.5-101,397.5z"/>
				<path id="XMLID_179_" class="st0" d="M-78.7,381.6h-2.8c-0.3,0-0.5,0.2-0.5,0.5v11.7c0,2.6-1.2,3.8-3.7,3.8s-3.7-1.2-3.7-3.8
					v-11.7c0-0.3-0.2-0.5-0.5-0.5h-2.9c-0.3,0-0.5,0.2-0.5,0.5V394c0,4.4,2.9,7.2,7.4,7.2c4.6,0,7.4-2.7,7.4-7.2v-11.9
					C-78.3,381.8-78.5,381.6-78.7,381.6z"/>
				<path id="XMLID_178_" class="st0" d="M-57,397.5h-8.7v-4.6h7.3c0.3,0,0.5-0.2,0.5-0.5V390c0-0.3-0.2-0.5-0.5-0.5h-7.3V385h8.3
					c0.3,0,0.5-0.2,0.5-0.5V382c0-0.3-0.2-0.5-0.5-0.5H-69c-0.3,0-0.5,0.2-0.5,0.5v18.4c0,0.3,0.2,0.5,0.5,0.5h12
					c0.3,0,0.5-0.2,0.5-0.5v-2.5C-56.5,397.7-56.7,397.5-57,397.5z"/>
			</g>
			<g id="XMLID_163_">
				<path id="XMLID_176_" class="st0" d="M-145.5,409.9h-0.1c0,0-0.1,0-0.1,0.1l-3,3.6l-3-3.6l-0.1-0.1h-0.2c-0.1,0-0.2,0.1-0.2,0.2
					v6.7c0,0.1,0.1,0.2,0.2,0.2h1c0.1,0,0.2-0.1,0.2-0.2v-3.4c0-0.1,0-0.3,0-0.4c0.1,0.1,0.2,0.2,0.3,0.3l1.7,2l0.1,0.1h0.1
					c0,0,0.1,0,0.1-0.1l1.7-2c0.1-0.1,0.2-0.2,0.3-0.3c0,0.1,0,0.3,0,0.4v3.4c0,0.1,0.1,0.2,0.2,0.2h1c0.1,0,0.2-0.1,0.2-0.2v-6.7
					C-145.4,410-145.4,409.9-145.5,409.9z"/>
				<path id="XMLID_173_" class="st0" d="M-139.4,410c0-0.1-0.1-0.1-0.2-0.1h-0.1c-0.1,0-0.1,0-0.2,0.1l-2.8,6.7c0,0.1,0,0.1,0,0.2
					l0.1,0.1h1c0.1,0,0.1,0,0.2-0.1l0.4-1.1h2.6l0.4,1.1c0,0.1,0.1,0.1,0.2,0.1h1.1c0.1,0,0.1,0,0.1-0.1c0,0,0-0.1,0-0.2L-139.4,410
					z M-138.8,414.5h-1.6l0.6-1.6c0.1-0.1,0.1-0.3,0.2-0.5c0.1,0.2,0.1,0.3,0.2,0.5L-138.8,414.5z"/>
				<path id="XMLID_170_" class="st0" d="M-130.1,414.2c0.8-0.4,1.3-1.1,1.3-2c0-1.4-1-2.3-2.6-2.3h-2.2c-0.1,0-0.2,0.1-0.2,0.2v6.6
					c0,0.1,0.1,0.2,0.2,0.2h1c0.1,0,0.2-0.1,0.2-0.2v-2.3h0.9l1.4,2.4c0,0.1,0.1,0.1,0.1,0.1h1.2c0.1,0,0.1,0,0.1-0.1
					c0-0.1,0-0.1,0-0.2L-130.1,414.2z M-132.4,411.2h1c0.8,0,1.2,0.3,1.2,1c0,0.7-0.4,1-1.2,1h-1V411.2z"/>
				<path id="XMLID_169_" class="st0" d="M-123,413.1l2.3-2.8c0,0,0-0.1,0-0.2s-0.1-0.1-0.1-0.1h-1.2c0,0-0.1,0-0.1,0.1l-2.2,2.7
					c-0.1,0.1-0.1,0.1-0.2,0.2c0-0.1,0-0.2,0-0.2v-2.6c0-0.1-0.1-0.2-0.2-0.2h-1c-0.1,0-0.2,0.1-0.2,0.2v6.6c0,0.1,0.1,0.2,0.2,0.2
					h1c0.1,0,0.2-0.1,0.2-0.2v-2l0.6-0.7l1.9,2.7l0.1,0.1h1.2c0.1,0,0.1,0,0.1-0.1c0-0.1,0-0.1,0-0.2L-123,413.1z"/>
				<path id="XMLID_168_" class="st0" d="M-113.3,415.7h-3.1V414h2.7c0.1,0,0.2-0.1,0.2-0.2V413c0-0.1-0.1-0.2-0.2-0.2h-2.7v-1.6h3
					c0.1,0,0.2-0.1,0.2-0.2v-0.9c0-0.1-0.1-0.2-0.2-0.2h-4.2c-0.1,0-0.2,0.1-0.2,0.2v6.6c0,0.1,0.1,0.2,0.2,0.2h4.3
					c0.1,0,0.2-0.1,0.2-0.2v-0.9C-113.1,415.8-113.2,415.7-113.3,415.7z"/>
				<path id="XMLID_167_" class="st0" d="M-105.5,410h-5c-0.1,0-0.2,0.1-0.2,0.2v0.8c0,0.1,0.1,0.2,0.2,0.2h1.8v5.6
					c0,0.1,0.1,0.2,0.2,0.2h1c0.1,0,0.2-0.1,0.2-0.2v-5.6h1.8c0.1,0,0.2-0.1,0.2-0.2v-0.9C-105.3,410-105.4,410-105.5,410z"/>
				<path id="XMLID_166_" class="st0" d="M-101.3,410h-1c-0.1,0-0.2,0.1-0.2,0.2v6.6c0,0.1,0.1,0.2,0.2,0.2h1c0.1,0,0.2-0.1,0.2-0.2
					v-6.6C-101.2,410-101.2,410-101.3,410z"/>
				<path id="XMLID_165_" class="st0" d="M-92.5,410h-1c-0.1,0-0.2,0.1-0.2,0.2v3.6c0,0.1,0,0.3,0,0.4c-0.1-0.1-0.2-0.2-0.3-0.3
					l-3.7-3.9l-0.1-0.1h-0.1c-0.1,0-0.2,0.1-0.2,0.2v6.7c0,0.1,0.1,0.2,0.2,0.2h1c0.1,0,0.2-0.1,0.2-0.2v-3.7c0-0.1,0-0.3,0-0.4
					c0.1,0.1,0.2,0.2,0.3,0.3l3.7,3.9l0.1,0.1h0.1c0.1,0,0.2-0.1,0.2-0.2v-6.7C-92.3,410-92.4,410-92.5,410z"/>
				<path id="XMLID_164_" class="st0" d="M-83.1,413.2h-2.7c-0.1,0-0.2,0.1-0.2,0.2v0.9c0,0.1,0.1,0.2,0.2,0.2h1.6v1
					c-0.4,0.2-0.9,0.4-1.5,0.4c-1.4,0-2.3-0.9-2.3-2.3c0-1.3,0.9-2.3,2.2-2.3c0.7,0,1.1,0.2,1.5,0.6l0.1,0.1l0,0h0.1l0.7-0.7
					c0.1-0.1,0.1-0.2,0-0.2c-0.6-0.6-1.4-0.9-2.5-0.9c-2.1,0-3.6,1.5-3.6,3.6c0,2.1,1.6,3.6,3.7,3.6c1.3,0,2.2-0.5,2.7-0.9l0.1-0.1
					v-2.6C-83,413.3-83,413.2-83.1,413.2z"/>
			</g>
		</g>
		<path class="st0" d="M-205.5,400.8c-0.2-0.2-0.6-0.1-0.6,0.3v5.5c0,0.2,0.1,0.4,0.4,0.4h2.5c0.2,0,0.4-0.2,0.4-0.4v-3
			c0-0.1,0-0.2-0.1-0.3L-205.5,400.8z M-188.5,400.8l-2.5,2.5c-0.1,0.1-0.1,0.2-0.1,0.3v3c0,0.2,0.2,0.4,0.4,0.4h2.5
			c0.2,0,0.4-0.2,0.4-0.4v-5.5C-187.9,400.8-188.3,400.6-188.5,400.8z M-197,372c-13.8,0-25,11.2-25,25s11.2,25,25,25s25-11.2,25-25
			S-183.2,372-197,372z M-197,418.9c-12.1,0-21.9-9.8-21.9-21.9s9.8-21.9,21.9-21.9s21.9,9.8,21.9,21.9S-184.9,418.9-197,418.9z
			 M-188.3,387.9h-2.5c-0.2,0-0.4,0.2-0.4,0.4v8.2c0,0.1,0,0.2-0.1,0.3l-5.5,5.5c-0.1,0.1-0.4,0.1-0.5,0l-5.5-5.5
			c-0.1-0.1-0.1-0.2-0.1-0.3v-8.2c0-0.2-0.2-0.4-0.4-0.4h-2.5c-0.2,0-0.4,0.2-0.4,0.4v9.5c0,0.1,0,0.2,0.1,0.3l8.7,8.7
			c0.1,0.1,0.4,0.1,0.5,0l8.7-8.7c0.1-0.1,0.1-0.2,0.1-0.3v-9.5C-187.9,388.1-188,387.9-188.3,387.9z"/>
	</g>
</g>
</svg>
