<xml version="1.0" encoding="utf-8">
<!-- Generator: Adobe Illustrator 19.1.0, SVG Export Plug-In . SVG Version: 6.00 Build 0)  -->
<svg version="1.1" id="Capa_1" xmlns="http://www.w3.org/2000/svg" xmlns:xlink="http://www.w3.org/1999/xlink" x="0px" y="0px"
	 viewBox="-202.6 132.3 581 581" style="enable-background:new -202.6 132.3 581 581;" xml:space="preserve">
<style type="text/css">
	.st0{fill:#FFFFFF;}
</style>
<circle cx="87.9" cy="422.8" r="290.5"/>
<g>
	<path class="st0" d="M67.5,284.4c-3.3-18.6-6.9-36.2-10.7-50.3c-5-18.6-15.4-24.9-23.3-26.9c-28.9-7.3-68,32.2-72.4,36.8l12.6,12.1
		c11.6-12.1,40.4-35.7,55.4-32c1.8,0.5,7.3,1.9,10.7,14.5c3.4,12.7,6.7,28.7,9.8,45.7H34.1l18.3,297.5H62v5.1h99.9v-5.1h9.6
		l18-297.5C189.5,284.4,67.5,284.4,67.5,284.4z M49.5,360l-4-64.9h6.1c3.8,22.3,7.1,45.5,9.6,64.9H49.5z M60.7,420.3
		c-2.2-4.4-0.4-9.7,4-11.9l25.8-12.8c4.4-2.2,9.7-0.4,11.9,4l12.8,25.8c2.2,4.4,0.3,9.7-4,11.8l-25.8,12.8c-4.3,2.1-9.7,0.4-11.8-4
		L60.7,420.3z M116,418.4l-10.6-21.4c-1.3-2.7-3.7-4.5-6.3-5.6l1.1-13.9c0.4-5.1,4.9-8.9,9.9-8.5l0.1,0c0,0,0,0,0.1,0l30.1,2.4
		c5.1,0.4,8.9,4.9,8.5,10l-2.4,30.1c-0.4,5.1-4.9,8.9-10,8.5l-0.1,0c0,0,0,0-0.1,0L116,418.4z M124.4,480.8c0,4.9-3.9,8.9-8.8,8.9
		l-10.7,0l0,0l-18.1,0.1c-4.9,0-8.9-3.9-8.9-8.8l-0.1-26.3c1.1,0.3,2.2,0.5,3.4,0.5c1.8,0,3.6-0.4,5.3-1.2l21.7-10.8l7.2,0
		c4.9,0,8.9,3.9,8.9,8.8L124.4,480.8z M126.1,546.2l-23.8,16.3c-4,2.8-9.5,1.7-12.3-2.3l-16.3-23.8c-2.8-4-1.7-9.5,2.3-12.3
		l23.8-16.3c0.1-0.1,0.2-0.1,0.3-0.1l0,5c0,7.6,6.2,13.7,13.7,13.7l9.5,0l5.2,7.5C131.2,537.9,130.2,543.4,126.1,546.2z
		 M142.6,521.4l-22.7,0.1l0,0l-6.1,0c0,0,0,0,0,0c-0.7,0-1.3-0.2-1.9-0.4c-0.5-0.1-1-0.1-1.5-0.3c-0.5-0.2-0.9-0.6-1.3-0.8
		c-0.5-0.3-1.1-0.6-1.5-1c-0.3-0.3-0.4-0.6-0.6-0.9c-0.5-0.6-1-1.2-1.3-1.9c-0.4-1.1-0.7-2.2-0.7-3.4l0-6.3l0,0l0-11.8l10.7,0
		c3.7,0,7.1-1.4,9.7-4c2.6-2.6,4-6.1,4-9.7l0-5.9l13.2,0c4.9,0,8.9,3.9,8.9,8.8l0.1,28.8C151.5,517.4,147.5,521.4,142.6,521.4z
		 M78.9,360c-2.5-19.1-5.8-42.3-9.5-64.9h108.7l-3.9,64.9H78.9z"/>
</g>
</svg>
