<xml version="1.0" encoding="utf-8">
<!-- Generator: Adobe Illustrator 19.1.0, SVG Export Plug-In . SVG Version: 6.00 Build 0)  -->
<svg version="1.1" id="Capa_1" xmlns="http://www.w3.org/2000/svg" xmlns:xlink="http://www.w3.org/1999/xlink" x="0px" y="0px"
	 viewBox="-43 134 525 525" style="enable-background:new -43 134 525 525;" xml:space="preserve">
<style type="text/css">
	.st0{fill:#FFFFFF;}
</style>
<circle cx="219.5" cy="396.5" r="262.5"/>
<g id="Layer_5_58_">
	<g>
		<g>
			<path class="st0" d="M227.2,384c-18.4-7.3-23.8-11.8-23.8-20c0-6.4,4.9-14.1,18.6-14.1c12.2,0,21.6,4.9,21.6,4.9
				c1,0.5,2.1,0.9,3.1,0.9c2.6,0,5-1.6,6.1-4.2l3.3-8.5c1.2-3.1-0.5-5.9-2.8-6.8c-7.5-3.3-22.3-5.7-22.3-5.9c-0.2,0-1-0.2-1-1.2
				v-12.3c0-3.8-3.1-6.8-7-6.8h-6.1c-3.8,0-7,3.1-7,6.8v13c0,1-1,1.4-1.6,1.6c-18.6,4.3-30.1,17.9-30.1,35.1
				c0,21.4,17.6,31,36.7,38.3c15.3,5.9,21.4,12,21.4,20.9c0,9.7-8.9,16.5-21.4,16.5c-10.8,0-25.4-6.8-25.4-7c-0.9-0.5-1.9-0.7-3-0.7
				c-2.8,0-5.2,1.7-6.1,4.3l-3.1,8.7c-1.2,3.3,0.7,5.9,2.8,7c8.9,4.7,26.3,7.3,27,7.5c0.2,0,1.2,0.3,1.2,1.4v13c0,3.8,3.1,6.8,7,6.8
				h6.3c3.8,0,7-3.1,7-6.8v-13.7c0-1.2,0.9-1.4,1.2-1.4c19.8-4.5,31.8-19,31.8-37C261.8,405.5,251.5,393.5,227.2,384z"/>
			<path class="st0" d="M219.5,233.4c-90.1,0-163.2,73.1-163.2,163.2s73.1,163.1,163.2,163.1s163.2-73.1,163.2-163.1
				S309.6,233.4,219.5,233.4z M219.5,521.9c-69.2,0-125.4-56.2-125.4-125.4s56.2-125.4,125.4-125.4s125.4,56.2,125.4,125.4
				S288.7,521.9,219.5,521.9z"/>
		</g>
	</g>
</g>
</svg>
