<?xml version="1.0" encoding="utf-8"?>
<!-- Generator: Adobe Illustrator 18.1.1, SVG Export Plug-In . SVG Version: 6.00 Build 0)  -->
<svg version="1.1" id="Layer_1" xmlns="http://www.w3.org/2000/svg" xmlns:xlink="http://www.w3.org/1999/xlink" x="0px" y="0px"
	 viewBox="0 0 60.9 60.9" enable-background="new 0 0 60.9 60.9" xml:space="preserve">
<path fill="#595A5C" d="M30.5,0C13.6,0,0,13.6,0,30.5c0,16.8,13.6,30.5,30.5,30.5s30.5-13.6,30.5-30.5C60.9,13.6,47.3,0,30.5,0z
	 M32.2,36.6c-1.7-0.1-2.4-0.9-3.6-1.7c-0.7,3.7-1.6,7.3-4.2,9.2c-0.8-5.7,1.2-9.9,2.1-14.4C24.9,27,26.7,21.7,30,23
	c4,1.6-3.5,9.8,1.6,10.8c5.3,1.1,7.5-9.2,4.2-12.5C31,16.5,21.9,21.2,23,28.1c0.3,1.7,2,2.2,0.7,4.5c-3-0.7-3.9-3.1-3.8-6.3
	c0.2-5.2,4.7-8.9,9.2-9.4c5.7-0.6,11.1,2.1,11.8,7.5C41.7,30.5,38.3,37.1,32.2,36.6z"/>
</svg>
