<?xml version="1.0" encoding="utf-8"?>
<!-- Generator: Adobe Illustrator 19.1.0, SVG Export Plug-In . SVG Version: 6.00 Build 0)  -->
<svg version="1.1" id="Layer_1" xmlns="http://www.w3.org/2000/svg" xmlns:xlink="http://www.w3.org/1999/xlink" x="0px" y="0px"
	 viewBox="0 0 480.8 229.4" style="enable-background:new 0 0 480.8 229.4;" xml:space="preserve">
<style type="text/css">
	.st0{fill:#FFFFFF;}
</style>
<g>
	<g>
		<path class="st0" d="M83,15.1c0,7.8,7.1,12.3,7.1,22.7c0,8.2-5.7,13.9-12.5,13.9c-2.3,0-4.5-0.6-5.9-1.6c-0.8,0.1-1.5,0.1-2.2,0.1
			c-5.8,0-9.8-3.6-9.8-9.8c0-5.9,3.8-9.4,8-9.4c2.3,0,4.8,1,6.8,3.3c-2.1,1.5-3.5,4.9-3.5,8.1c0,1.5,0.3,2.8,0.9,4
			c3.3-2,5.4-5.7,5.4-9.4c0-6.8-6.9-11.6-6.9-20.8c0-7.5,4.9-13.8,13.2-13.8c2.7,0,4.5,0.7,6,1.5c0.6,0,1.2-0.1,1.9-0.1
			c5.9,0,9.4,3.4,9.4,8.9c0,5-3.8,8.3-8.3,8.3c-2.4,0-5-0.9-7.5-2.9c3.2-2.7,4.8-6.9,4.8-10c0-0.3-0.1-0.7-0.1-0.9
			C85.6,7.8,83,11.5,83,15.1z"/>
		<path class="st0" d="M108.9,16.2c1.5-0.9,3-1.4,4.3-1.4c4.2,0,8,1.9,10.5,4.7c1.2-1.5,2.1-2.9,2.6-4.1c2.5,0.1,3.4,1.2,3.4,3.1
			c0,1.5-1.2,3.6-3.3,5.9c0.3,1,0.4,2,0.4,3c0,12.4-9.7,23.7-17.8,23.7c-2.8,0-5.9-1-8.2-3.7c-1.2-0.3-2.2-0.9-3.1-1.7
			c-1.4,1.8-2.4,3.4-2.9,4.9c-2.5-0.1-3.4-1.6-3.4-3.7c0-1.6,1.2-3.8,3.3-6.2c-0.3-1.2-0.4-2.5-0.4-3.8c0-10.4,7.8-20.9,12.6-20.9
			C107.6,15.9,108.2,16,108.9,16.2z M103.7,40.9c0.1,1.6,0.4,2.9,0.9,3.7c5-2.8,9.2-7,11.2-12L103.7,40.9z M109.3,25.4
			c-2.2,2-4.6,5.3-5.2,8.4l12.8-9c0-1.5-0.1-2.8-0.4-4.1c-1.2,0.4-3.8,2.6-4.9,5.2C110.9,25.9,109.8,25.8,109.3,25.4z"/>
		<path class="st0" d="M146.7,51.1c-2.7,0-7.3-4.5-7.3-11c0-0.5,0-1,0.1-1.5l-0.4-0.1c-1.7,4.3-2.8,8.8-2.8,12.3c-7.5,0-11-1.2-11-5
			c0-8.9,16-32.7,16-43.2c7.5,0,10.8,1.2,10.8,5c0,4.2-3.8,12.2-7.8,19.2c6.2-0.9,9.7-6.2,10.5-11.8c6.7,0.1,10,1.3,10,5
			c0,7.2-6.9,13.3-13.6,13.3c-2.8,0-5.9-0.9-8.2-2.2c-0.4,1.3-0.5,2.9-0.5,4.4c0,3,0.6,5.9,0.9,6.8c1.7-1,3.8-4.6,4.2-7.3
			c6.5,0.1,9.7,1.5,9.7,4.8C157.5,44.7,151.8,51.1,146.7,51.1z"/>
		<path class="st0" d="M160.1,60.7c11.3-6.1,21.5-27.9,22.9-45.3c7.5,0,10.6,2.2,10.6,6.9c0,11.5-12.6,44.6-29,44.6
			c-2.2,0-5.5-0.9-7-2c-5.3-0.6-7.5-3.6-7.5-6.7c0-2.3,1.2-4.7,3.3-6.4c6.2,0.3,8.3,2.3,8.3,4.7C161.7,57.9,161,59.4,160.1,60.7z
			 M191.1,0c3.6,0,6.5,2.9,6.5,6.5c0,3.7-2.9,6.6-6.5,6.6c-3.6,0-6.5-2.9-6.5-6.6C184.5,2.9,187.4,0,191.1,0z"/>
		<path class="st0" d="M207.8,16.5c1.2-0.9,2.8-1.4,4.7-1.4c6.4,0,12.8,5.7,12.8,13.3c0,11.4-9.4,22.3-17.1,22.3
			c-2.6,0-5.9-0.8-8.1-3.5c-3.8-1-6.3-5.2-6.3-10.4c0-10.4,7.5-20.7,12.4-20.7C206.7,16.2,207.2,16.3,207.8,16.5z M207.4,27.7
			c-2.3,3.4-4.1,9.2-4.1,13.6c0,1.2,0.1,2.4,0.4,3.4c5.7-2.7,11.8-13.6,11.8-21.7c0-0.7,0-1.6-0.1-2.1c-1.2,0.4-3.9,4.4-4.9,7.7
			C209.4,28.6,208.2,28.2,207.4,27.7z"/>
		<path class="st0" d="M246.3,19.7h0.4c2.1-2.9,3.6-3.8,5.4-3.8c3.9,0,9,4.4,9,12.1c0,8.4-9.1,22.8-17,22.8c-2.9,0-6.6-2.7-7.7-8.1
			h-0.3c-0.6,1.8-1,5.7-1,7v1.2c-7.5,0-11-1.2-11-5c0-8.9,16-32.7,16-43.2c7.5,0,11,1.2,11,4.9C251.2,10.1,248.4,15.7,246.3,19.7z
			 M251.2,22.9c-5.4,0.9-11.8,10-11.8,15.9c0,1.2,0.4,3.1,1.1,4.1C246.4,38.9,251.2,26.8,251.2,22.9z"/>
		<path class="st0" d="M281.4,19.7h0.4c2.1-2.9,3.6-3.8,5.4-3.8c3.9,0,9,4.4,9,12.1c0,8.4-9.1,22.8-17,22.8c-2.9,0-6.6-2.7-7.7-8.1
			h-0.3c-0.6,1.8-1,5.7-1,7v1.2c-7.5,0-11-1.2-11-5c0-8.9,16-32.7,16-43.2c7.5,0,11,1.2,11,4.9C286.3,10.1,283.5,15.7,281.4,19.7z
			 M286.3,22.9c-5.4,0.9-11.8,10-11.8,15.9c0,1.2,0.4,3.1,1.1,4.1C281.5,38.9,286.3,26.8,286.3,22.9z"/>
		<path class="st0" d="M328.7,23.1c2.8-4.4,6.7-7.7,8.9-7.7c2.9,0,7,5.4,7,8.9c0,7-9.2,19.7-9.2,26.6c-7.3,0-11-1.1-11-4.6
			c0-5.7,6.5-13.9,8.3-20.7c-4.4,0.1-14.7,14.7-14.7,25.4c-7.5,0-11-1.2-11-5.2c0-8.7,16.1-32.5,16.1-43c7.5,0,11,1.2,11,5
			c0,3.5-2.8,9.1-5.9,15.5H328.7z"/>
		<path class="st0" d="M358.9,16.5c1.2-0.9,2.8-1.4,4.7-1.4c6.4,0,12.8,5.7,12.8,13.3c0,11.4-9.4,22.3-17.1,22.3
			c-2.6,0-5.9-0.8-8.1-3.5c-3.8-1-6.3-5.2-6.3-10.4c0-10.4,7.5-20.7,12.4-20.7C357.8,16.2,358.3,16.3,358.9,16.5z M358.6,27.7
			c-2.3,3.4-4.1,9.2-4.1,13.6c0,1.2,0.1,2.4,0.4,3.4c5.7-2.7,11.8-13.6,11.8-21.7c0-0.7,0-1.6-0.1-2.1c-1.2,0.4-3.9,4.4-4.9,7.7
			C360.5,28.6,359.3,28.2,358.6,27.7z"/>
		<path class="st0" d="M400.9,30.2c-1.7,0-3.6-0.6-5.7-1.8c1.5-2.2,2.5-5.3,2.5-7.8c0-0.6,0-1.2-0.1-1.7c-2.5,0.7-4.3,3.6-4.3,6.2
			c0,5.2,7.3,8.6,7.3,16.2c0,6.2-4.2,9.8-10.1,9.8c-1.7,0-3.6-0.3-5.5-0.9c-0.6,0.1-1.1,0.1-1.6,0.1c-5.2,0-8.4-3.5-8.4-8.1
			c0-4,2.4-6.5,6-6.5c1.7,0,3.6,0.5,5.7,1.7c-1.1,2-1.7,4.4-1.7,6.5c0,1.3,0.3,2.5,0.9,3.3c2.4-1.1,3.3-3.5,3.3-5.9
			c0-5.4-7.2-9.1-7.2-15.9c0-6.2,4.8-10.4,10.7-10.4c1.2,0,2.5,0.2,3.8,0.6c0.4-0.1,0.9-0.1,1.2-0.1c5.1,0,9.4,2.8,9.4,7.8
			C407,27.6,404.5,30.2,400.9,30.2z"/>
		<path class="st0" d="M12.3,80.6c0,7.7-4.3,16-4.3,28.9h0.4c6.3-14.3,15.9-26.6,16-34.3c8.9,0,10.7,2.1,10.7,5.9
			c0,8.4-15.7,27.3-20.7,42.3C1.9,123.3,0,110,0,96.5C0,88.9,0.4,82,1.4,75.3C10.3,75.3,12.3,77.2,12.3,80.6z"/>
		<path class="st0" d="M51,123.3c-8.7,0-10.4-1.6-10.4-4.6c0-0.9,0.3-2.2,0.9-3.8h-0.4c-2,4.4-4,7.8-6,7.8c-2.9,0-7.6-4.5-7.6-12.3
			c0-9,7.6-22.7,16-22.8c2.2,0,5.7,3,7.5,5.5c0.7-2,1.2-3.8,1.2-5.3c8.7,0,10.4,1.3,10.4,4.4C62.6,97.7,51,115.9,51,123.3z
			 M49.6,96.3c-6.8,0-12.3,11.8-12.3,17.9c6.2-3.6,9.6-12.1,12.6-17.9H49.6z"/>
		<path class="st0" d="M73.2,75.2c7.5,0,11,1.2,11,5c0,8.9-16,32.7-16,43.2c-7.5,0-11-1.2-11-5C57.2,109.4,73.2,85.6,73.2,75.2z"/>
		<path class="st0" d="M91.8,113.6c-3.3,6.2-5.2,9.1-7.1,9.1c-3,0-8.6-4.4-8.6-8.7c0-8.8,8.8-19.7,8.8-26.1c8.7,0,11,1.3,11,4.4
			c0,5-6.9,13.1-8.6,21c8.1-3.5,14.7-20.5,14.7-25.4c8.7,0,11,1.3,11,4.4c0,7-9.6,21.3-10.9,28.3c-0.1,0.9-0.2,1.7-0.2,2.8
			c-8.7,0-11-1.6-11-4.6c0-1.2,0.4-3,1.4-5.1H91.8z"/>
		<path class="st0" d="M123.2,104c-1.4,3.3-2.1,6.7-2.1,9.6c0,1.2,0.1,2.4,0.4,3.4c2.8-1.5,4.6-4.8,4.9-8.3c7.3,0,10.2,1.9,10.2,4.9
			c0,4.6-5.1,9.9-10.3,9.9c-7.5,0-14.9-5.8-14.9-15.7c0-10.4,8.9-20.4,19.2-20.4c8,0,12.9,4,12.9,9.1c0,5.5-4.5,9.6-9.9,9.6
			C129.9,106.3,125.9,105.6,123.2,104z M124.9,100.8c0.3,0.1,0.6,0.1,0.9,0.1c3.7,0,7.3-3.8,7.3-6.8c0-0.4-0.1-0.7-0.1-1.1
			C129.4,94.8,126.7,97.7,124.9,100.8z"/>
		<path class="st0" d="M182.6,103.2C187,95,201,80.5,201.7,76.4c2.3-0.8,5.1-1.3,7.7-1.3c4.9,0,9.4,1.7,9.4,5.7
			c0,3.1-1.6,8.5-7,20.1c-3.9,8.6-7.5,17.2-7.5,22.5c-7.5,0-11-1.2-11-5c0-5.6,4.3-15,9.5-24.9h-0.4c-6.3,8.9-17.3,21.3-19.7,29.9
			c-7.5,0-10.7-3.3-10.7-10.3c0-3.4,0.4-7.6,2.2-19.6h-0.4c-2.9,9.6-11,20.7-11,29.9c-7.5,0-11-1.2-11-5c0-8.9,16.3-33.2,16.3-42.7
			c1.9-0.2,4.1-0.5,6.3-0.5c5.4,0,10.6,1.5,10.6,7.3c0,3.9-1,13.6-2.9,20.7H182.6z"/>
		<path class="st0" d="M236.7,123.3c-8.7,0-10.4-1.6-10.4-4.6c0-0.9,0.3-2.2,0.9-3.8h-0.4c-2,4.4-4,7.8-6,7.8
			c-2.9,0-7.6-4.5-7.6-12.3c0-9,7.6-22.7,16-22.8c2.2,0,5.7,3,7.5,5.5c0.7-2,1.2-3.8,1.2-5.3c8.7,0,10.4,1.3,10.4,4.4
			C248.3,97.7,236.7,115.9,236.7,123.3z M235.3,96.3c-6.8,0-12.3,11.8-12.3,17.9c6.2-3.6,9.6-12.1,12.6-17.9H235.3z"/>
		<path class="st0" d="M268.9,106.5c-2.6,0-5.9-1.2-7.9-3.4c-3.5,7.2-7.5,15.7-7.5,20.2c-8.7,0-11-1.6-11-4.6
			c0-5.6,11.5-22.9,11.5-30.8c9,0,11,1.6,11,4.4c0,1.7-1.2,4.9-2.9,8.6c3.4-1.5,6.6-5.7,6.6-12.1c7.3,0,10.1,1.6,10.1,5.5
			C278.7,100.4,273.2,106.5,268.9,106.5z"/>
		<path class="st0" d="M294.3,123.6c-2.7,0-7.3-4.5-7.3-11c0-0.5,0-1,0.1-1.5l-0.4-0.1c-1.7,4.3-2.8,8.8-2.8,12.3
			c-7.5,0-11-1.2-11-5c0-8.9,16-32.7,16-43.2c7.5,0,10.8,1.2,10.8,5c0,4.2-3.8,12.2-7.8,19.2c6.2-0.9,9.7-6.2,10.5-11.8
			c6.7,0.1,10,1.3,10,5c0,7.2-6.9,13.3-13.6,13.3c-2.8,0-5.9-0.9-8.2-2.2c-0.4,1.3-0.5,2.9-0.5,4.4c0,3,0.6,5.9,0.9,6.8
			c1.7-1,3.8-4.6,4.2-7.3c6.5,0.1,9.7,1.5,9.7,4.8C305.1,117.2,299.4,123.6,294.3,123.6z"/>
		<path class="st0" d="M322,104c-1.4,3.3-2.1,6.7-2.1,9.6c0,1.2,0.1,2.4,0.4,3.4c2.8-1.5,4.6-4.8,4.9-8.3c7.3,0,10.2,1.9,10.2,4.9
			c0,4.6-5.1,9.9-10.3,9.9c-7.5,0-14.9-5.8-14.9-15.7c0-10.4,8.9-20.4,19.2-20.4c8,0,12.9,4,12.9,9.1c0,5.5-4.5,9.6-9.9,9.6
			C328.7,106.3,324.7,105.6,322,104z M323.6,100.8c0.3,0.1,0.6,0.1,0.9,0.1c3.7,0,7.3-3.8,7.3-6.8c0-0.4-0.1-0.7-0.1-1.1
			C328.2,94.8,325.5,97.7,323.6,100.8z"/>
		<path class="st0" d="M364.4,89c5.1,0.4,9.4,0.6,9.4,0.6c-0.4,6.8-3.6,9.6-7.5,9.6c-2.2,0-4.3-0.5-6.7-0.7
			c-3,4.6-8.8,10.4-8.9,17.2c3-1.7,5.4-5.8,5.6-9.3c6.6,0.1,9.8,1.5,9.8,4.8c0,5.4-7,12.3-12,12.3c-4.5,0-10.7-7.6-10.7-14.7
			c0-3.4,2-7.3,4-11.1c-2.3-0.1-3.8-0.1-3.8-0.1c0.4-5.9,2-9.6,6.9-9.6c0.6,0,1.3,0,2,0.1c2.4-4.9,4.4-9.4,4.4-13.1
			c7.5,0,10.9,1.2,10.9,4.9C367.6,82.2,366.1,85.4,364.4,89z"/>
		<path class="st0" d="M377.2,123.3c-0.9,0.1-1.7,0.1-2.5,0.1c-6.3,0-8.5-1.8-8.5-4.7c0-5.6,11.5-23,11.5-30.8
			c1.6-0.2,3-0.3,4.2-0.3c4.8,0,6.8,1.6,6.8,4.6C388.7,97.5,377.2,115.9,377.2,123.3z M385.7,72.5c3.6,0,6.5,2.9,6.5,6.5
			c0,3.6-2.9,6.4-6.5,6.4c-3.6,0-6.4-2.8-6.4-6.4C379.3,75.5,382.1,72.5,385.7,72.5z"/>
		<path class="st0" d="M403.8,96.5c2.5-5.7,6.2-8.9,9.6-8.9c2.9,0,8.4,5.7,8.4,9.7c0,5.9-10,16.9-10,26c-8.7,0-11-1.7-11-4.7
			c0-5.4,7.8-16.6,10.4-22.9c-6.6,0-17.2,19.4-17.2,27.6c-8.7,0-11-1.7-11-4.8c0-5.2,10.7-20,10.7-30.6c6.7,0,10.7,0.9,10.7,4.3
			c0,1.2-0.4,2.6-1.2,4.3H403.8z"/>
		<path class="st0" d="M436.3,117.2c-1.5,2.6-3.6,4.6-5.4,4.6c-2.7,0-9.1-5.4-9.1-12.8c0-8.8,7.5-21.2,13.9-21.2
			c2,0,5.1,1.5,7.3,3.6v-3.6c8.7,0.1,10.9,4.1,10.9,9.1c0,8.5-2.9,19.6-9.1,29.6c-4.9,7.8-10.3,11.8-15.7,11.8c-2.8,0-5.2-0.8-7-3
			c-5.4-0.3-8.1-3.6-8.1-7.8c0-3.2,1.6-6.8,4.6-9.9c5.4,1.1,8.3,3.6,8.3,5.8c0,2.5-1.7,5.6-3,7.8c3.8-1.6,9.5-6.5,13-14.2H436.3z
			 M431.4,114.8c6.2-1.2,11.5-15,11.5-18.9C437.7,95.9,432.5,107.2,431.4,114.8z"/>
		<path class="st0" d="M461.2,110.7c3.6,0,6.5,2.9,6.5,6.5c0,3.6-2.9,6.4-6.5,6.4c-3.6,0-6.4-2.8-6.4-6.4
			C454.8,113.6,457.6,110.7,461.2,110.7z M469.6,108.6c-8.1,0-9.9-1.7-9.9-4.4c0-5.9,11-23.9,11.2-29.1c8.1,0,9.9,1.7,9.9,4.4
			C480.8,85,469.6,103.3,469.6,108.6z"/>
		<path class="st0" d="M27.5,195.3v-17.4h11.4v1.9h-9.2v5.6h9.1v1.9h-9.1v6h9.2v1.9H27.5z"/>
		<path class="st0" d="M50.8,195.3V187c0-2.2-1.1-2.9-2.8-2.9c-1.5,0-3,0.9-3.7,2v9.2h-2v-12.6h2v1.8c0.9-1,2.6-2.1,4.5-2.1
			c2.6,0,4,1.3,4,4.1v8.9H50.8z"/>
		<path class="st0" d="M58.9,199.5l0.7-1.5c0.4,0.4,1,0.8,1.8,0.8c1.2,0,2-0.7,2-2.3v-13.8h2v13.8c0,2.5-1.3,3.9-3.7,3.9
			C60.3,200.4,59.7,200.1,58.9,199.5z M63.1,179.6c0-0.7,0.6-1.3,1.3-1.3c0.7,0,1.3,0.6,1.3,1.3c0,0.7-0.6,1.3-1.3,1.3
			C63.7,180.9,63.1,180.3,63.1,179.6z"/>
		<path class="st0" d="M68.5,189c0-3.7,2.4-6.6,6.2-6.6c3.8,0,6.2,3,6.2,6.6s-2.4,6.6-6.2,6.6C70.9,195.6,68.5,192.6,68.5,189z
			 M79,189c0-2.6-1.5-4.9-4.2-4.9c-2.7,0-4.2,2.3-4.2,4.9c0,2.6,1.5,4.9,4.2,4.9C77.5,193.9,79,191.6,79,189z"/>
		<path class="st0" d="M84.2,195.3v-17.4h2v6.7c1-1.4,2.5-2.2,4.3-2.2c3.3,0,5.6,2.6,5.6,6.6c0,4.1-2.3,6.6-5.6,6.6
			c-1.8,0-3.3-0.9-4.3-2.2v1.9H84.2z M89.9,193.9c2.6,0,4.1-2.1,4.1-4.9c0-2.8-1.5-4.9-4.1-4.9c-1.5,0-3.1,0.9-3.8,2v5.7
			C86.9,193,88.4,193.9,89.9,193.9z"/>
		<path class="st0" d="M99.2,195.3v-17.4h2v6.7c1-1.4,2.5-2.2,4.3-2.2c3.3,0,5.6,2.6,5.6,6.6c0,4.1-2.3,6.6-5.6,6.6
			c-1.8,0-3.3-0.9-4.3-2.2v1.9H99.2z M105,193.9c2.6,0,4.1-2.1,4.1-4.9c0-2.8-1.5-4.9-4.1-4.9c-1.5,0-3.1,0.9-3.8,2v5.7
			C101.9,193,103.4,193.9,105,193.9z"/>
		<path class="st0" d="M129.5,195.3V187c0-2.2-1.1-2.9-2.8-2.9c-1.5,0-3,0.9-3.7,2v9.2h-2v-17.4h2v6.6c0.9-1,2.6-2.1,4.5-2.1
			c2.6,0,4,1.3,4,4v8.9H129.5z"/>
		<path class="st0" d="M134.7,189c0-3.7,2.4-6.6,6.2-6.6c3.8,0,6.2,3,6.2,6.6s-2.4,6.6-6.2,6.6C137.1,195.6,134.7,192.6,134.7,189z
			 M145.1,189c0-2.6-1.5-4.9-4.2-4.9s-4.2,2.3-4.2,4.9c0,2.6,1.5,4.9,4.2,4.9S145.1,191.6,145.1,189z"/>
		<path class="st0" d="M149.2,193.6l1-1.4c0.8,1,2.4,1.8,4.2,1.8c1.9,0,3-0.9,3-2.2c0-3.1-7.8-1.2-7.8-5.9c0-2,1.7-3.6,4.7-3.6
			c2.1,0,3.7,0.8,4.7,1.8l-0.9,1.4c-0.8-0.9-2.1-1.6-3.8-1.6c-1.7,0-2.8,0.9-2.8,2c0,2.8,7.8,0.9,7.8,5.9c0,2.1-1.7,3.8-5,3.8
			C152.3,195.6,150.5,195,149.2,193.6z"/>
		<path class="st0" d="M174.5,195.3l-7-17.4h2.5l5.9,15l5.9-15h2.5l-7,17.4H174.5z"/>
		<path class="st0" d="M192.7,195.3v-1.4c-1,1.1-2.5,1.7-4.2,1.7c-2.1,0-4.4-1.4-4.4-4.2c0-2.8,2.3-4.2,4.4-4.2
			c1.7,0,3.2,0.5,4.2,1.7v-2.3c0-1.7-1.4-2.7-3.2-2.7c-1.5,0-2.7,0.5-3.9,1.7l-0.9-1.4c1.4-1.4,3-2.1,5-2.1c2.7,0,4.9,1.2,4.9,4.3
			v8.7H192.7z M192.7,192.6v-2.4c-0.8-1-2.1-1.6-3.5-1.6c-1.8,0-3.1,1.2-3.1,2.8c0,1.6,1.3,2.7,3.1,2.7
			C190.6,194.2,191.9,193.7,192.7,192.6z"/>
		<path class="st0" d="M198.5,195.3v-17.4h2v17.4H198.5z"/>
		<path class="st0" d="M212.9,195.3v-1.8c-1,1.1-2.6,2.1-4.5,2.1c-2.6,0-4-1.3-4-4v-8.9h2v8.3c0,2.2,1.1,2.9,2.8,2.9
			c1.5,0,3-0.9,3.7-1.9v-9.3h2v12.6H212.9z"/>
		<path class="st0" d="M218.1,189c0-3.7,2.6-6.6,6.2-6.6c3.8,0,6.1,3,6.1,6.8v0.5h-10.2c0.2,2.4,1.8,4.4,4.5,4.4
			c1.4,0,2.9-0.6,3.9-1.6l0.9,1.3c-1.3,1.3-3,1.9-5,1.9C220.8,195.6,218.1,192.9,218.1,189z M224.3,184c-2.7,0-4,2.3-4.1,4.2h8.3
			C228.4,186.3,227.1,184,224.3,184z"/>
		<path class="st0" d="M255.2,195.3V181l-5.9,14.3h-0.9l-5.9-14.3v14.3h-2.2v-17.4h3.1l5.4,13.1l5.4-13.1h3.1v17.4H255.2z"/>
		<path class="st0" d="M269.3,195.3v-1.4c-1,1.1-2.5,1.7-4.2,1.7c-2.1,0-4.4-1.4-4.4-4.2c0-2.8,2.3-4.2,4.4-4.2
			c1.7,0,3.2,0.5,4.2,1.7v-2.3c0-1.7-1.4-2.7-3.2-2.7c-1.5,0-2.7,0.5-3.9,1.7l-0.9-1.4c1.4-1.4,3-2.1,5-2.1c2.7,0,4.9,1.2,4.9,4.3
			v8.7H269.3z M269.3,192.6v-2.4c-0.8-1-2.1-1.6-3.5-1.6c-1.8,0-3.1,1.2-3.1,2.8c0,1.6,1.3,2.7,3.1,2.7
			C267.2,194.2,268.5,193.7,269.3,192.6z"/>
		<path class="st0" d="M275.1,195.3v-12.6h2v2c1-1.3,2.5-2.3,4.2-2.3v2c-0.2-0.1-0.5-0.1-0.8-0.1c-1.2,0-2.8,1-3.4,2v8.9H275.1z"/>
		<path class="st0" d="M292.3,195.3l-4.5-5.7l-2.1,2.1v3.6h-2v-17.4h2v11.5l6.6-6.7h2.5l-5.6,5.7l5.6,6.9H292.3z"/>
		<path class="st0" d="M296.4,189c0-3.7,2.6-6.6,6.2-6.6c3.8,0,6.1,3,6.1,6.8v0.5h-10.2c0.2,2.4,1.8,4.4,4.5,4.4
			c1.4,0,2.9-0.6,3.9-1.6l0.9,1.3c-1.3,1.3-3,1.9-5,1.9C299.1,195.6,296.4,192.9,296.4,189z M302.6,184c-2.7,0-4,2.3-4.1,4.2h8.3
			C306.7,186.3,305.4,184,302.6,184z"/>
		<path class="st0" d="M312.2,192.7v-8.3h-2.1v-1.7h2.1v-3.4h2v3.4h2.6v1.7h-2.6v7.8c0,0.9,0.4,1.6,1.3,1.6c0.5,0,1.1-0.2,1.3-0.5
			l0.6,1.5c-0.5,0.5-1.2,0.8-2.4,0.8C313.1,195.6,312.2,194.5,312.2,192.7z"/>
		<path class="st0" d="M319.1,179.6c0-0.7,0.6-1.3,1.3-1.3c0.7,0,1.3,0.6,1.3,1.3c0,0.7-0.6,1.3-1.3,1.3
			C319.7,180.9,319.1,180.3,319.1,179.6z M319.5,195.3v-12.6h2v12.6H319.5z"/>
		<path class="st0" d="M333.9,195.3V187c0-2.2-1.1-2.9-2.8-2.9c-1.5,0-3,0.9-3.7,2v9.2h-2v-12.6h2v1.8c0.9-1,2.6-2.1,4.5-2.1
			c2.6,0,4,1.3,4,4.1v8.9H333.9z"/>
		<path class="st0" d="M339.7,198.5l1-1.5c1,1.3,2.3,1.7,4.1,1.7c2.1,0,4-1,4-3.8v-1.8c-0.9,1.3-2.5,2.2-4.2,2.2
			c-3.3,0-5.6-2.5-5.6-6.5c0-4,2.3-6.6,5.6-6.6c1.7,0,3.2,0.8,4.2,2.2v-1.9h2v12.3c0,4.2-2.9,5.5-6,5.5
			C342.7,200.4,341.2,200,339.7,198.5z M348.9,191.7v-5.5c-0.7-1.1-2.2-2-3.8-2c-2.5,0-4,2-4,4.8c0,2.8,1.5,4.8,4,4.8
			C346.7,193.7,348.2,192.8,348.9,191.7z"/>
		<path class="st0" d="M360.7,189c0-3.7,2.6-6.6,6.2-6.6c3.8,0,6.1,3,6.1,6.8v0.5h-10.2c0.2,2.4,1.8,4.4,4.5,4.4
			c1.4,0,2.9-0.6,3.9-1.6l0.9,1.3c-1.3,1.3-3,1.9-5,1.9C363.4,195.6,360.7,192.9,360.7,189z M366.9,184c-2.7,0-4,2.3-4.1,4.2h8.3
			C371.1,186.3,369.8,184,366.9,184z"/>
		<path class="st0" d="M376.2,195.3v-12.6h2v2c1-1.3,2.5-2.3,4.2-2.3v2c-0.2-0.1-0.5-0.1-0.8-0.1c-1.2,0-2.8,1-3.4,2v8.9H376.2z"/>
		<path class="st0" d="M400,195.3v-1.8c-1,1.1-2.6,2.1-4.5,2.1c-2.6,0-4-1.3-4-4v-8.9h2v8.3c0,2.2,1.1,2.9,2.8,2.9
			c1.5,0,3-0.9,3.7-1.9v-9.3h2v12.6H400z"/>
		<path class="st0" d="M405.9,195.3v-17.4h2v17.4H405.9z"/>
		<path class="st0" d="M411.5,179.6c0-0.7,0.6-1.3,1.3-1.3c0.7,0,1.3,0.6,1.3,1.3c0,0.7-0.6,1.3-1.3,1.3
			C412.1,180.9,411.5,180.3,411.5,179.6z M411.8,195.3v-12.6h2v12.6H411.8z"/>
		<path class="st0" d="M426.3,195.3l-4.5-5.7l-2.1,2.1v3.6h-2v-17.4h2v11.5l6.6-6.7h2.5l-5.6,5.7l5.6,6.9H426.3z"/>
		<path class="st0" d="M431.5,192.7v-8.3h-2.1v-1.7h2.1v-3.4h2v3.4h2.6v1.7h-2.6v7.8c0,0.9,0.4,1.6,1.3,1.6c0.5,0,1.1-0.2,1.3-0.5
			l0.6,1.5c-0.5,0.5-1.2,0.8-2.4,0.8C432.4,195.6,431.5,194.5,431.5,192.7z"/>
		<path class="st0" d="M104.5,224.3v-1.4c-1,1.1-2.5,1.7-4.2,1.7c-2.1,0-4.4-1.4-4.4-4.2c0-2.8,2.3-4.2,4.4-4.2
			c1.7,0,3.2,0.5,4.2,1.7v-2.3c0-1.7-1.4-2.7-3.2-2.7c-1.5,0-2.7,0.5-3.9,1.7l-0.9-1.4c1.4-1.4,3-2.1,5-2.1c2.7,0,4.9,1.2,4.9,4.3
			v8.7H104.5z M104.5,221.7v-2.4c-0.8-1-2.1-1.6-3.5-1.6c-1.8,0-3.1,1.2-3.1,2.8c0,1.6,1.3,2.7,3.1,2.7
			C102.4,223.2,103.8,222.7,104.5,221.7z"/>
		<path class="st0" d="M110.4,224.3v-17.4h2v17.4H110.4z"/>
		<path class="st0" d="M116.7,221.7v-8.3h-2.1v-1.7h2.1v-3.4h2v3.4h2.6v1.7h-2.6v7.8c0,0.9,0.4,1.6,1.3,1.6c0.5,0,1.1-0.2,1.3-0.5
			l0.6,1.5c-0.5,0.5-1.2,0.8-2.4,0.8C117.6,224.6,116.7,223.6,116.7,221.7z"/>
		<path class="st0" d="M139.8,224.3v-1.9c-0.9,1.3-2.5,2.2-4.3,2.2c-3.3,0-5.6-2.5-5.6-6.6c0-4,2.3-6.6,5.6-6.6
			c1.7,0,3.2,0.8,4.3,2.2v-6.7h2v17.4H139.8z M139.8,220.9v-5.7c-0.7-1.1-2.2-2-3.8-2c-2.5,0-4,2.1-4,4.9c0,2.8,1.5,4.9,4,4.9
			C137.6,222.9,139.1,222,139.8,220.9z"/>
		<path class="st0" d="M154.2,224.3v-1.8c-1,1.1-2.6,2.1-4.5,2.1c-2.6,0-4-1.3-4-4v-8.9h2v8.3c0,2.2,1.1,2.9,2.8,2.9
			c1.5,0,3-0.9,3.7-1.9v-9.3h2v12.6H154.2z"/>
		<path class="st0" d="M175.4,224.3V216c0-2.2-1.1-2.9-2.8-2.9c-1.5,0-3,0.9-3.7,2v9.2h-2v-17.4h2v6.6c0.9-1,2.6-2.1,4.5-2.1
			c2.6,0,4,1.3,4,4v8.9H175.4z"/>
		<path class="st0" d="M189.1,224.3v-1.4c-1,1.1-2.5,1.7-4.2,1.7c-2.1,0-4.4-1.4-4.4-4.2c0-2.8,2.3-4.2,4.4-4.2
			c1.7,0,3.2,0.5,4.2,1.7v-2.3c0-1.7-1.4-2.7-3.2-2.7c-1.5,0-2.7,0.5-3.9,1.7l-0.9-1.4c1.4-1.4,3-2.1,5-2.1c2.7,0,4.9,1.2,4.9,4.3
			v8.7H189.1z M189.1,221.7v-2.4c-0.8-1-2.1-1.6-3.5-1.6c-1.8,0-3.1,1.2-3.1,2.8c0,1.6,1.3,2.7,3.1,2.7
			C187,223.2,188.4,222.7,189.1,221.7z"/>
		<path class="st0" d="M195,224.3v-12.6h2v2c1-1.3,2.5-2.3,4.2-2.3v2c-0.2-0.1-0.5-0.1-0.8-0.1c-1.2,0-2.8,1-3.4,2v8.9H195z"/>
		<path class="st0" d="M210.3,227.6l1-1.5c1,1.3,2.3,1.7,4.1,1.7c2.1,0,4.1-1,4.1-3.8v-1.8c-0.9,1.3-2.5,2.2-4.2,2.2
			c-3.3,0-5.6-2.5-5.6-6.5c0-4,2.3-6.6,5.6-6.6c1.7,0,3.2,0.8,4.2,2.2v-1.9h2V224c0,4.2-2.9,5.5-6,5.5
			C213.3,229.4,211.8,229,210.3,227.6z M219.5,220.7v-5.5c-0.7-1.1-2.2-2-3.8-2c-2.5,0-4,2-4,4.8c0,2.8,1.5,4.8,4,4.8
			C217.3,222.8,218.8,221.8,219.5,220.7z"/>
		<path class="st0" d="M222,228.5l0.7-1.5c0.4,0.4,1,0.8,1.8,0.8c1.2,0,2-0.7,2-2.3v-13.8h2v13.8c0,2.5-1.3,3.9-3.7,3.9
			C223.5,229.4,222.8,229.1,222,228.5z M226.2,208.6c0-0.7,0.6-1.3,1.3-1.3c0.7,0,1.3,0.6,1.3,1.3c0,0.7-0.6,1.3-1.3,1.3
			C226.8,209.9,226.2,209.3,226.2,208.6z"/>
		<path class="st0" d="M231.7,218c0-3.7,2.4-6.6,6.2-6.6c3.8,0,6.2,3,6.2,6.6s-2.4,6.6-6.2,6.6C234.1,224.6,231.7,221.7,231.7,218z
			 M242.1,218c0-2.6-1.5-4.9-4.2-4.9c-2.7,0-4.2,2.3-4.2,4.9c0,2.6,1.5,4.9,4.2,4.9C240.6,222.9,242.1,220.6,242.1,218z"/>
		<path class="st0" d="M247.4,224.3v-12.6h2v2c1-1.3,2.5-2.3,4.2-2.3v2c-0.2-0.1-0.5-0.1-0.8-0.1c-1.2,0-2.8,1-3.4,2v8.9H247.4z"/>
		<path class="st0" d="M256.4,221.7v-8.3h-2.1v-1.7h2.1v-3.4h2v3.4h2.6v1.7h-2.6v7.8c0,0.9,0.4,1.6,1.3,1.6c0.5,0,1.1-0.2,1.3-0.5
			l0.6,1.5c-0.5,0.5-1.2,0.8-2.4,0.8C257.3,224.6,256.4,223.6,256.4,221.7z"/>
		<path class="st0" d="M270.8,221.7v-8.3h-2.1v-1.7h2.1v-3.4h2v3.4h2.6v1.7h-2.6v7.8c0,0.9,0.4,1.6,1.3,1.6c0.5,0,1.1-0.2,1.3-0.5
			l0.6,1.5c-0.5,0.5-1.2,0.8-2.4,0.8C271.7,224.6,270.8,223.6,270.8,221.7z"/>
		<path class="st0" d="M277.7,208.6c0-0.7,0.6-1.3,1.3-1.3c0.7,0,1.3,0.6,1.3,1.3c0,0.7-0.6,1.3-1.3,1.3
			C278.3,209.9,277.7,209.3,277.7,208.6z M278.1,224.3v-12.6h2v12.6H278.1z"/>
		<path class="st0" d="M293.1,224.3v-1.9c-0.9,1.3-2.5,2.2-4.3,2.2c-3.3,0-5.6-2.5-5.6-6.6c0-4,2.3-6.6,5.6-6.6
			c1.7,0,3.2,0.8,4.3,2.2v-6.7h2v17.4H293.1z M293.1,220.9v-5.7c-0.7-1.1-2.2-2-3.8-2c-2.5,0-4,2.1-4,4.9c0,2.8,1.5,4.9,4,4.9
			C290.9,222.9,292.4,222,293.1,220.9z"/>
		<path class="st0" d="M299,224.3v-17.4h2v17.4H299z"/>
		<path class="st0" d="M304.5,208.6c0-0.7,0.6-1.3,1.3-1.3c0.7,0,1.3,0.6,1.3,1.3c0,0.7-0.6,1.3-1.3,1.3
			C305.1,209.9,304.5,209.3,304.5,208.6z M304.8,224.3v-12.6h2v12.6H304.8z"/>
		<path class="st0" d="M310.7,227.6l1-1.5c1,1.3,2.3,1.7,4.1,1.7c2.1,0,4-1,4-3.8v-1.8c-0.9,1.3-2.5,2.2-4.2,2.2
			c-3.3,0-5.6-2.5-5.6-6.5c0-4,2.3-6.6,5.6-6.6c1.7,0,3.2,0.8,4.2,2.2v-1.9h2V224c0,4.2-2.9,5.5-6,5.5
			C313.7,229.4,312.2,229,310.7,227.6z M319.8,220.7v-5.5c-0.7-1.1-2.2-2-3.8-2c-2.5,0-4,2-4,4.8c0,2.8,1.5,4.8,4,4.8
			C317.6,222.8,319.2,221.8,319.8,220.7z"/>
		<path class="st0" d="M325,218c0-3.7,2.6-6.6,6.2-6.6c3.8,0,6.1,3,6.1,6.8v0.5H327c0.2,2.4,1.8,4.4,4.5,4.4c1.4,0,2.9-0.6,3.9-1.6
			l0.9,1.3c-1.3,1.3-3,1.9-5,1.9C327.7,224.6,325,221.9,325,218z M331.2,213c-2.7,0-4,2.3-4.1,4.2h8.3
			C335.3,215.3,334,213,331.2,213z"/>
		<path class="st0" d="M340.4,224.3v-12.6h2v2c1-1.3,2.5-2.3,4.2-2.3v2c-0.2-0.1-0.5-0.1-0.8-0.1c-1.2,0-2.8,1-3.4,2v8.9H340.4z"/>
		<path class="st0" d="M348.3,218c0-3.7,2.6-6.6,6.2-6.6c3.8,0,6.1,3,6.1,6.8v0.5h-10.2c0.2,2.4,1.8,4.4,4.5,4.4
			c1.4,0,2.9-0.6,3.9-1.6l0.9,1.3c-1.3,1.3-3,1.9-5,1.9C351,224.6,348.3,221.9,348.3,218z M354.5,213c-2.7,0-4,2.3-4.1,4.2h8.3
			C358.6,215.3,357.4,213,354.5,213z"/>
		<path class="st0" d="M363.2,223.1c0-0.8,0.7-1.4,1.4-1.4s1.4,0.7,1.4,1.4s-0.7,1.4-1.4,1.4S363.2,223.9,363.2,223.1z"/>
	</g>
</g>
</svg>
