<?xml version="1.0" encoding="utf-8"?>
<!-- Generator: Adobe Illustrator 18.1.1, SVG Export Plug-In . SVG Version: 6.00 Build 0)  -->
<svg version="1.1" id="Layer_1" xmlns="http://www.w3.org/2000/svg" xmlns:xlink="http://www.w3.org/1999/xlink" x="0px" y="0px"
	 viewBox="0 0 60.9 60.9" enable-background="new 0 0 60.9 60.9" xml:space="preserve">
<path fill="#595A5C" d="M30.5,0C13.6,0,0,13.6,0,30.5c0,16.8,13.6,30.5,30.5,30.5s30.5-13.6,30.5-30.5C60.9,13.6,47.3,0,30.5,0z
	 M40.8,25.1c0,0.2,0,0.5,0,0.7c0,7.1-5.4,15.2-15.2,15.2c-3,0-5.8-0.9-8.2-2.4c0.4,0,0.8,0.1,1.3,0.1c2.5,0,4.8-0.9,6.6-2.3
	c-2.3,0-4.3-1.6-5-3.7c0.3,0.1,0.7,0.1,1,0.1c0.5,0,1-0.1,1.4-0.2c-2.4-0.5-4.3-2.7-4.3-5.2c0,0,0,0,0-0.1c0.7,0.4,1.5,0.6,2.4,0.7
	c-1.4-1-2.4-2.6-2.4-4.5c0-1,0.3-1.9,0.7-2.7c2.6,3.2,6.6,5.4,11,5.6c-0.1-0.4-0.1-0.8-0.1-1.2c0-3,2.4-5.3,5.3-5.3
	c1.5,0,2.9,0.6,3.9,1.7c1.2-0.2,2.4-0.7,3.4-1.3c-0.4,1.2-1.2,2.3-2.4,3c1.1-0.1,2.1-0.4,3.1-0.8C42.8,23.4,41.9,24.4,40.8,25.1z"/>
</svg>
