<?xml version="1.0" encoding="utf-8"?>
<!-- Generator: Adobe Illustrator 18.1.1, SVG Export Plug-In . SVG Version: 6.00 Build 0)  -->
<svg version="1.1" id="Layer_1" xmlns="http://www.w3.org/2000/svg" xmlns:xlink="http://www.w3.org/1999/xlink" x="0px" y="0px"
	 viewBox="0 0 101.1 101.2" enable-background="new 0 0 101.1 101.2" xml:space="preserve">
<g>
	<g>
		<path fill="#595A5C" d="M52.7,69.4c0-12.4,0-24.9,0-37.3c0-2.8-4.4-2.8-4.4,0c0,12.4,0,24.9,0,37.3C48.4,72.2,52.7,72.2,52.7,69.4
			L52.7,69.4z"/>
	</g>
	<g>
		<path fill="#595A5C" d="M66,44.4c-4.6-4.6-9.3-9.3-13.9-13.9c-0.8-0.8-2.3-0.8-3.1,0c-4.6,4.6-9.3,9.3-13.9,13.9
			c-2,2,1.1,5.1,3.1,3.1c4.6-4.6,9.3-9.3,13.9-13.9c-1,0-2.1,0-3.1,0c4.6,4.6,9.3,9.3,13.9,13.9C64.9,49.5,68,46.4,66,44.4L66,44.4z
			"/>
	</g>
</g>
<g>
	<path fill="#595A5C" d="M50.4,4.4C75.6,5.1,96.8,25,96.8,50.7c0,25.4-21.1,46.2-46.4,46.4C25.1,97.2,4,75.9,4,50.7
		C4,25,25.1,5.1,50.4,4.4c2.8-0.1,2.8-4.4,0-4.4C4.5,1.2-18.5,59.8,18.2,89.9c35.6,29.1,89.7-2.4,82.2-47.6
		C96.3,17.7,74.8,0.7,50.4,0C47.6-0.1,47.6,4.3,50.4,4.4z"/>
</g>
</svg>
