<?xml version="1.0" encoding="utf-8"?>
<!-- Generator: Adobe Illustrator 18.1.1, SVG Export Plug-In . SVG Version: 6.00 Build 0)  -->
<svg version="1.1" id="Layer_1" xmlns="http://www.w3.org/2000/svg" xmlns:xlink="http://www.w3.org/1999/xlink" x="0px" y="0px"
	 viewBox="0 0 101.2 101.1" enable-background="new 0 0 101.2 101.1" xml:space="preserve">
<g>
	<g>
		<path d="M31.8,52.7c12.4,0,24.9,0,37.3,0c2.8,0,2.8-4.4,0-4.4c-12.4,0-24.9,0-37.3,0C29,48.4,29,52.7,31.8,52.7
			L31.8,52.7z"/>
	</g>
	<g>
		<path fill="#595A5C" d="M56.8,66c4.6-4.6,9.3-9.3,13.9-13.9c0.8-0.8,0.8-2.3,0-3.1c-4.6-4.6-9.3-9.3-13.9-13.9
			c-2-2-5.1,1.1-3.1,3.1c4.6,4.6,9.3,9.3,13.9,13.9c0-1,0-2.1,0-3.1c-4.6,4.6-9.3,9.3-13.9,13.9C51.7,64.9,54.8,68,56.8,66L56.8,66z
			"/>
	</g>
</g>
<g>
	<path fill="#595A5C" d="M96.8,50.4c-0.7,25.2-20.6,46.4-46.4,46.4c-25.4,0-46.2-21.1-46.4-46.4C3.9,25.1,25.3,4,50.4,4
		C76.2,4,96.1,25.1,96.8,50.4c0.1,2.8,4.4,2.8,4.4,0C99.9,4.5,41.3-18.5,11.2,18.2c-29.1,35.6,2.4,89.7,47.6,82.2
		c24.6-4.1,41.6-25.6,42.3-50C101.2,47.6,96.9,47.6,96.8,50.4z"/>
</g>
</svg>
