<?xml version="1.0" encoding="utf-8"?>
<!-- Generator: Adobe Illustrator 19.1.0, SVG Export Plug-In . SVG Version: 6.00 Build 0)  -->
<svg version="1.1" id="Capa_1" xmlns="http://www.w3.org/2000/svg" xmlns:xlink="http://www.w3.org/1999/xlink" x="0px" y="0px"
	 viewBox="67 24 745 745" style="enable-background:new 67 24 745 745;" xml:space="preserve">
<style type="text/css">
	.st0{fill:#FFFFFF;}
</style>
<circle cx="439.5" cy="396.5" r="372.5"/>
<g>
	<g id="_x31_5_38_">
		<g>
			<path class="st0" d="M315.5,269.5h6.9c10.5,0,19.1-8.6,19.1-19.1v-52.7V178c0-10.5-8.5-19.1-19.1-19.1h-6.9
				c-10.5,0-19.1,8.5-19.1,19.1v19.7v52.7C296.4,260.9,305,269.5,315.5,269.5z"/>
			<path class="st0" d="M560.4,269h6.9c10.5,0,19.1-8.5,19.1-19.1v-57.2v-15.2c0-10.5-8.5-19.1-19.1-19.1h-6.9
				c-10.5,0-19.1,8.5-19.1,19.1v15.2v57.2C541.3,260.5,549.8,269,560.4,269z"/>
			<path class="st0" d="M650.9,197.7h-49v57.2c0,19.1-15.5,29.6-34.6,29.6h-6.9c-19.1,0-34.6-15.5-34.6-34.6v-52.2H357.1v52.7
				c0,19.1-15.5,34.6-34.6,34.6h-6.9c-19.1,0-34.6-15.5-34.6-34.6v-52.7h-53c-17.1,0-31,13.9-31,31v375c0,17.1,13.9,31,31,31h422.9
				c17.1,0,31-13.9,31-31v-375C682,211.6,668,197.7,650.9,197.7z M650.9,603.8H228V320.6h422.9V603.8L650.9,603.8z"/>
			<path class="st0" d="M455.5,415.6h55.7c2.2,0,4-1.8,4-4v-48.3c0-2.2-1.8-4-4-4h-55.7c-2.2,0-4,1.8-4,4v48.3
				C451.5,413.8,453.3,415.6,455.5,415.6z"/>
			<path class="st0" d="M546.4,415.6h55.7c2.2,0,4-1.8,4-4v-48.3c0-2.2-1.8-4-4-4h-55.7c-2.2,0-4,1.8-4,4v48.3
				C542.4,413.8,544.2,415.6,546.4,415.6z"/>
			<path class="st0" d="M273.6,494.6h55.7c2.2,0,4-1.8,4-4v-48.3c0-2.2-1.8-4-4-4h-55.7c-2.2,0-4,1.8-4,4v48.3
				C269.6,492.8,271.4,494.6,273.6,494.6z"/>
			<path class="st0" d="M364.6,494.6h55.7c2.2,0,4-1.8,4-4v-48.3c0-2.2-1.8-4-4-4h-55.7c-2.2,0-4,1.8-4,4v48.3
				C360.6,492.8,362.3,494.6,364.6,494.6z"/>
			<path class="st0" d="M455.5,494.6h55.7c2.2,0,4-1.8,4-4v-48.3c0-2.2-1.8-4-4-4h-55.7c-2.2,0-4,1.8-4,4v48.3
				C451.5,492.8,453.3,494.6,455.5,494.6z"/>
			<path class="st0" d="M546.4,494.6h55.7c2.2,0,4-1.8,4-4v-48.3c0-2.2-1.8-4-4-4h-55.7c-2.2,0-4,1.8-4,4v48.3
				C542.4,492.8,544.2,494.6,546.4,494.6z"/>
			<path class="st0" d="M329.3,517.2h-55.7c-2.2,0-4,1.8-4,4v48.3c0,2.2,1.8,4,4,4h55.7c2.2,0,4-1.8,4-4v-48.3
				C333.3,519.1,331.5,517.2,329.3,517.2z"/>
			<path class="st0" d="M420.3,517.2h-55.7c-2.2,0-4,1.8-4,4v48.3c0,2.2,1.8,4,4,4h55.7c2.2,0,4-1.8,4-4v-48.3
				C424.3,519.1,422.5,517.2,420.3,517.2z"/>
			<path class="st0" d="M511.2,517.2h-55.7c-2.2,0-4,1.8-4,4v48.3c0,2.2,1.8,4,4,4h55.7c2.2,0,4-1.8,4-4v-48.3
				C515.2,519.1,513.4,517.2,511.2,517.2z"/>
			<path class="st0" d="M602.2,517.2h-55.7c-2.2,0-4,1.8-4,4v48.3c0,2.2,1.8,4,4,4h55.7c2.2,0,4-1.8,4-4v-48.3
				C606.2,519.1,604.4,517.2,602.2,517.2z"/>
		</g>
	</g>
</g>
</svg>
