<?xml version="1.0" encoding="utf-8"?>
<!-- Generator: Adobe Illustrator 19.1.0, SVG Export Plug-In . SVG Version: 6.00 Build 0)  -->
<svg version="1.1" id="Capa_1" class="cancel-button" xmlns="http://www.w3.org/2000/svg" xmlns:xlink="http://www.w3.org/1999/xlink" x="0px" y="0px"
	 viewBox="-289 381 32 32" style="enable-background:new -289 381 32 32;" xml:space="preserve">
<style type="text/css">
</style>
<g>
	<g>
		<path class="st0" d="M-273,413c-8.8,0-16-7.2-16-16c0-8.8,7.2-16,16-16c8.8,0,16,7.2,16,16C-257,405.8-264.2,413-273,413z
			 M-273,382.8c-7.8,0-14.2,6.4-14.2,14.2s6.4,14.2,14.2,14.2c7.8,0,14.2-6.4,14.2-14.2S-265.2,382.8-273,382.8z"/>
	</g>
	<g>
		<path class="st0" d="M-277.5,402.4c-0.2,0-0.5-0.1-0.6-0.3c-0.4-0.4-0.4-0.9,0-1.3l5.5-5.5c0,0,0,0,0,0l3.4-3.4
			c0.4-0.4,0.9-0.4,1.3,0c0.4,0.4,0.4,0.9,0,1.3l-5.5,5.5c0,0,0,0,0,0l-3.4,3.4C-277,402.3-277.2,402.4-277.5,402.4z"/>
	</g>
	<g>
		<path class="st0" d="M-268.5,402.4c-0.2,0-0.5-0.1-0.6-0.3l-3.4-3.4c0,0,0,0,0,0l-5.5-5.5c-0.4-0.4-0.4-0.9,0-1.3
			c0.4-0.4,0.9-0.4,1.3,0l3.4,3.4c0,0,0,0,0,0l5.5,5.5c0.4,0.4,0.4,0.9,0,1.3C-268.1,402.3-268.3,402.4-268.5,402.4z"/>
	</g>
</g>
</svg>
