<svg version="1.1" id="Layer_1" xmlns="http://www.w3.org/2000/svg" xmlns:xlink="http://www.w3.org/1999/xlink" x="0px" y="0px"
	 viewBox="0 0 117 137.1" enable-background="new 0 0 117 137.1" xml:space="preserve">
<g>
	<path fill="#58595B" d="M5.2,94.5l0.6,1.2l4.3-0.5l2.2,4.2l-2.9,3.3l1.2,2.3l10.7-12.3L5.2,94.5z M11.5,95.1l5.1-0.5l-3.4,3.9
		L11.5,95.1z"/>
	<path fill="#58595B" d="M33.3,109.5c-1.4-1.2-3.1-1.9-5-1.9c-2.1,0-4,0.9-5.3,2.4c-1.3,1.5-2,3.3-1.8,5.3c0.1,1.9,1,3.7,2.5,5
		c1.6,1.4,3.2,2.2,4.9,2.4l0.3,0L33,118l-1.8-1.6l-4,4.4c-0.9-0.2-1.8-0.7-2.7-1.5c-1-0.9-1.5-2.1-1.4-3.4c0-1.4,0.7-2.9,1.8-4.2
		c1.3-1.5,3-2.4,4.7-2.4c1.1,0,2.1,0.4,2.8,1.1c1.1,1,1.9,2.4,2,3.6l0.1,1.1l1.4-1.6l-0.1-0.3C35.5,111.9,34.5,110.5,33.3,109.5z"/>
	<polygon fill="#58595B" points="40.5,21.7 39.7,20.7 35,24 32,19.6 35.9,16.9 35.2,15.8 31.3,18.6 28.4,14.5 33.1,11.2 32.4,10.2 
		25.6,14.9 33.7,26.4 	"/>
	<polygon fill="#58595B" points="70.5,0 68,0 67.9,14.1 70.4,14.1 	"/>
	<path fill="#58595B" d="M13.4,40c1.2,0.8,2.7,1.3,4.1,1.3c2.4,0,4.7-1.2,6.1-3.3c1-1.5,1.5-3.1,1.4-4.6l0-0.2l-1.8-1.2l0.2,1.2
		c0.3,1.5,0,3-0.9,4.2c-0.8,1.2-2.1,1.9-3.7,1.9c-1.3,0-2.7-0.5-3.9-1.3c-2.9-1.9-3.9-5-2.4-7.3c0.8-1.1,1.8-2,3.1-2.4l1-0.3
		l-1.7-1.1l-0.3,0.1c-1.2,0.7-2.3,1.7-3.1,3c-1.1,1.7-1.5,3.6-1.1,5.5C10.7,37.3,11.8,38.9,13.4,40z"/>
	<path fill="#58595B" d="M0,69.8l0.2,1.4l4.2,1.1L4.9,77l-3.8,2l0.3,2.6l14.4-7.6L0,69.8z M5.7,72.7l5,1.3l-4.5,2.4L5.7,72.7z"/>
	<polygon fill="#58595B" points="108.1,28.6 103.7,24.9 107.1,20.9 110.8,24 111.6,23 107.9,19.9 111.1,16.1 115.5,19.7 116.3,18.7 
		110,13.5 101,24.3 107.3,29.6 	"/>
	<path fill="#58595B" d="M115.2,109.7c-1.3-1.4-3.1-2.2-5-2.2c-1.9,0-3.8,0.8-5.2,2.1l-2.8,2.6l9.4,10.3l2.8-2.6
		c1.5-1.4,2.4-3.1,2.6-5C117.2,113,116.5,111.1,115.2,109.7z M113.5,119l-1,0.9l-7.7-8.4l1-0.9c0.9-0.8,2-1.2,3.2-1.2
		c1.6,0,3.1,0.7,4.3,2.1c1.1,1.2,1.7,2.7,1.7,4.1C115.1,116.8,114.5,118.1,113.5,119z"/>
	<path fill="#58595B" d="M91.9,126.7c1.3-0.5,2.3-1.3,2.8-2.1c0.7-1,0.8-2.2,0.3-3.4c-0.6-1.5-1.9-2.4-3.6-2.4
		c-0.8,0-1.6,0.2-2.5,0.5l-3.6,1.5l5.2,12.9l2.3-0.9l-1.9-4.8l7.8,2.4l1.8-0.7l-9-2.8L91.9,126.7z M90.1,126.1l-2-5.1l0.9-0.4
		c0.6-0.2,1.1-0.4,1.6-0.4c0.6,0,1.5,0.2,2.2,1.8c0.7,1.8,0.2,2.9-1.7,3.6L90.1,126.1z"/>
	<polygon fill="#58595B" points="52.1,15.3 48.6,3 46.2,3.7 50.1,17.2 57.3,15.2 57,13.9 	"/>
	<polygon fill="#58595B" points="91.4,19.8 96.3,5.5 95.1,5.1 91.9,14.5 86.3,1 81.4,15.3 82.6,15.7 85.8,6.3 	"/>
	<path fill="#58595B" d="M40.3,130.9l1.3,0.5l2.8-3.3l4.5,1.6l0.1,4.3l2.5,0.9L51,118.7L40.3,130.9z M45.3,127.1l3.4-3.9l0.2,5.1
		L45.3,127.1z"/>
	<path fill="#58595B" d="M64.7,137.1l1.4,0l1.5-4.1l4.8-0.1l1.7,4l2.6-0.1l-6.3-15L64.7,137.1z M68.1,131.7l1.8-4.8l2,4.7
		L68.1,131.7z"/>
</g>
</svg>
