<?xml version="1.0" encoding="utf-8"?>
<!-- Generator: Adobe Illustrator 18.1.1, SVG Export Plug-In . SVG Version: 6.00 Build 0)  -->
<svg version="1.1" id="Layer_0_xA0_Image_1_" xmlns="http://www.w3.org/2000/svg" xmlns:xlink="http://www.w3.org/1999/xlink"
	 x="0px" y="0px" viewBox="0 0 52 52" enable-background="new 0 0 52 52" xml:space="preserve">
<g>
	<path fill="#58595B" d="M52,28c-7.9,0-15.8,0-24,0c0,8.2,0,16.1,0,24c-1.3,0-2.7,0-4,0c0-7.9,0-15.8,0-24c-8.2,0-16.1,0-24,0c0-1.3,0-2.7,0-4
		c7.9,0,15.8,0,24,0c0-8.2,0-16.1,0-24c1.3,0,2.7,0,4,0c0,7.9,0,15.8,0,24c8.2,0,16.1,0,24,0C52,25.3,52,26.7,52,28z"/>
</g>
</svg>
